<svg xmlns="http://www.w3.org/2000/svg" width="75" height="75" viewBox="0 0 75 75"><path id="crianza-de-los-hijos" d="M25.5,25.645a8.322,8.322,0,1,0-8.323-8.322A8.332,8.332,0,0,0,25.5,25.645Zm0-14.519a6.2,6.2,0,1,1-6.2,6.2A6.2,6.2,0,0,1,25.5,11.126ZM78.477,28.243H56.523A5.529,5.529,0,0,0,51,33.766a1.063,1.063,0,1,0,2.126,0,3.4,3.4,0,0,1,3.4-3.4H78.478a3.4,3.4,0,0,1,3.4,3.4V55.079a3.392,3.392,0,0,1-1.97,3.08L77.8,37.544a1.063,1.063,0,1,0-2.114.216L78.6,66.274H56.4l1.252-12.239a1.063,1.063,0,1,0-2.114-.216L55.1,58.16A3.409,3.409,0,0,1,53.442,56.5V53.119L63.149,40.64A3.642,3.642,0,0,0,57.4,36.17L48.393,47.746H44.607L35.6,36.17a3.642,3.642,0,1,0-5.751,4.47l9.707,12.478V56.5a3.432,3.432,0,0,1-3.081,1.977H35.8v-4.55a1.063,1.063,0,0,0-2.126,0V81.874H26.562V59.686a1.063,1.063,0,0,0-2.126,0V81.874H17.324V37.652a1.063,1.063,0,0,0-2.126,0V58.476h-.676a3.4,3.4,0,0,1-3.4-3.4V33.766a3.4,3.4,0,0,1,3.4-3.4H36.477a3.4,3.4,0,0,1,3.4,3.4,1.063,1.063,0,0,0,2.126,0,5.529,5.529,0,0,0-5.523-5.523H14.523A5.529,5.529,0,0,0,9,33.766V55.079A5.529,5.529,0,0,0,14.523,60.6H15.2V82.937A1.063,1.063,0,0,0,16.261,84H34.738A1.063,1.063,0,0,0,35.8,82.937V60.6h.676a5.5,5.5,0,0,0,3.081-.937V82.937A1.063,1.063,0,0,0,40.621,84H52.379a1.063,1.063,0,0,0,1.063-1.063V59.66a5.5,5.5,0,0,0,1.43.687l-.7,6.881A1.063,1.063,0,0,0,55.225,68.4H57.2V82.937A1.063,1.063,0,0,0,58.262,84H76.739A1.063,1.063,0,0,0,77.8,82.937V68.4h1.974a1.063,1.063,0,0,0,1.057-1.171l-.7-6.879A5.518,5.518,0,0,0,84,55.079V33.766a5.529,5.529,0,0,0-5.523-5.523ZM47.563,81.874V68.141a1.063,1.063,0,0,0-2.126,0V81.874H41.684V52.754a1.063,1.063,0,0,0-.224-.653L31.529,39.336a1.517,1.517,0,1,1,2.4-1.861l9.325,11.986a1.063,1.063,0,0,0,.839.41h4.825a1.063,1.063,0,0,0,.839-.41l9.325-11.986a1.517,1.517,0,0,1,2.4,1.861L51.54,52.1a1.063,1.063,0,0,0-.224.653V81.875ZM59.325,68.4h7.113V81.874H59.325ZM75.676,81.874H68.563V68.4h7.113ZM67.5,25.645a8.322,8.322,0,1,0-8.322-8.322A8.332,8.332,0,0,0,67.5,25.645Zm0-14.519a6.2,6.2,0,1,1-6.2,6.2A6.2,6.2,0,0,1,67.5,11.126Zm-21,34.138a5.683,5.683,0,1,0-5.683-5.683A5.689,5.689,0,0,0,46.5,45.263Zm0-9.24a3.557,3.557,0,1,1-3.557,3.557A3.561,3.561,0,0,1,46.5,36.024Z" transform="translate(-9 -9)" fill="#fff"></path></svg>