<svg xmlns="http://www.w3.org/2000/svg" width="86.063" height="77" viewBox="0 0 86.063 77"><g id="cristal" transform="translate(-0.636 -4)"><path id="Path_12" data-name="Path 12" d="M27,36.969V53.006l13.889,8.019,13.889-8.019V36.969L40.889,28.95Z" transform="translate(9.722 9.314)" fill="none" stroke="#fff" stroke-linecap="round" stroke-linejoin="round" stroke-width="2"></path><path id="Path_13" data-name="Path 13" d="M54.383,50.534,47,46.27" transform="translate(17.5 16.049)" fill="none" stroke="#fff" stroke-linecap="round" stroke-linejoin="round" stroke-width="2"></path><path id="Path_14" data-name="Path 14" d="M50.889,43.705l13.889-8.019V19.648L50.889,11.629,37,19.648V35.686" transform="translate(13.611 2.578)" fill="none" stroke="#fff" stroke-linecap="round" stroke-linejoin="round" stroke-width="2"></path><path id="Path_15" data-name="Path 15" d="M41,19.4V29.885" transform="translate(15.167 5.601)" fill="none" stroke="#fff" stroke-linecap="round" stroke-linejoin="round" stroke-width="2"></path><path id="Path_16" data-name="Path 16" d="M34.778,36.969,20.889,28.95,7,36.969V53.006l13.889,8.019,13.889-8.019" transform="translate(1.944 9.314)" fill="none" stroke="#fff" stroke-linecap="round" stroke-linejoin="round" stroke-width="2"></path><path id="Path_17" data-name="Path 17" d="M16.466,49.475l9.722-5.614" transform="translate(5.626 15.113)" fill="none" stroke="#fff" stroke-linecap="round" stroke-linejoin="round" stroke-width="2"></path><path id="Path_18" data-name="Path 18" d="M47,14.207V5" transform="translate(17.5 0)" fill="none" stroke="#fff" stroke-linecap="round" stroke-linejoin="round" stroke-width="2"></path><path id="Path_19" data-name="Path 19" d="M17,31.653V22" transform="translate(5.833 6.611)" fill="none" stroke="#fff" stroke-linecap="round" stroke-linejoin="round" stroke-width="2"></path><path id="Path_20" data-name="Path 20" d="M37,61.705V52.044" transform="translate(13.611 18.295)" fill="none" stroke="#fff" stroke-linecap="round" stroke-linejoin="round" stroke-width="2"></path><path id="Path_21" data-name="Path 21" d="M8.944,46.27,2,50.226" transform="translate(0 16.049)" fill="none" stroke="#fff" stroke-linecap="round" stroke-linejoin="round" stroke-width="2"></path><path id="Path_22" data-name="Path 22" d="M63.944,14.516,57,18.526" transform="translate(21.389 3.701)" fill="none" stroke="#fff" stroke-linecap="round" stroke-linejoin="round" stroke-width="2"></path></g></svg>