<svg xmlns="http://www.w3.org/2000/svg" width="30.403" height="39.72" viewBox="0 0 30.403 39.72"><g id="Group_13132" data-name="Group 13132" transform="translate(-830.134 -6683.612)"><path id="Path_64" data-name="Path 64" d="M31.38,28.509l4.206-9.367C38.97,11.686,32.826,3.457,24.758,3.988,17.046,3.827,11.347,12.1,14.644,19.142l4.206,9.367c-14.353,3.8-7.268,13.384,6.265,13.162,13.526.229,20.618-9.36,6.265-13.162ZM16.555,9.748c3.62-5.915,13.5-5.915,17.126,0a9.133,9.133,0,0,1,.68,8.842L27.8,33.206a2.972,2.972,0,0,1-5.356,0L15.882,18.59a9.133,9.133,0,0,1,.68-8.842Zm8.56,30.577c-11.783.1-18.795-7.281-5.706-10.565l1.8,4a4.3,4.3,0,0,0,7.819,0l1.8-4c13.1,3.284,6.076,10.666-5.706,10.565Z" transform="translate(820.222 6680.654)" fill="#fff" stroke="#fff" stroke-width="2"></path><path id="Path_65" data-name="Path 65" d="M35.216,16.973A6.154,6.154,0,0,0,29,10.89a6.087,6.087,0,1,0,0,12.173,6.163,6.163,0,0,0,6.218-6.083Zm-11.083,0a4.813,4.813,0,0,1,4.872-4.737,4.742,4.742,0,1,1,0,9.481,4.813,4.813,0,0,1-4.872-4.737Z" transform="translate(816.338 6678.389)" fill="#fff" stroke="#fff" stroke-width="2"></path></g></svg>