<svg xmlns="http://www.w3.org/2000/svg" width="47.331" height="75" viewBox="0 0 47.331 75"><g id="Layer_39" data-name="Layer 39" transform="translate(-20.372 -2.991)"><path id="Path_10" data-name="Path 10" d="M42.441,50.27v6.5H36.59a1.6,1.6,0,0,0-1.6,1.6V76.4a1.6,1.6,0,0,0,1.6,1.6H51.484a1.6,1.6,0,0,0,1.6-1.6V58.366a1.6,1.6,0,0,0-1.6-1.6H45.633v-6.5a23.665,23.665,0,1,0-3.191,0ZM38.185,74.8V68.976h11.7V74.8Zm11.7-9.015h-11.7V59.961h11.7Zm-5.851-59.6A20.475,20.475,0,1,1,23.563,26.664,20.475,20.475,0,0,1,44.037,6.189Z" transform="translate(0 0)" fill="#646464"></path><path id="Path_11" data-name="Path 11" d="M42.47,32.407h4.117v4.117a1.6,1.6,0,0,0,3.191,0V32.407H53.9a1.6,1.6,0,1,0,0-3.191H49.778V25.1a1.6,1.6,0,1,0-3.191,0v4.118H42.47a1.6,1.6,0,1,0,0,3.191Z" transform="translate(-4.146 -4.147)" fill="#646464"></path></g></svg>