<svg xmlns="http://www.w3.org/2000/svg" width="38.658" height="38.729" viewBox="0 0 38.658 38.729"><g id="llamada-telefonica" transform="translate(0.498 0.517)"><g id="Group_13065" data-name="Group 13065" transform="translate(0 0)"><path id="Path_61" data-name="Path 61" d="M30.121,48.586a3.709,3.709,0,0,0-2.69-1.234,3.835,3.835,0,0,0-2.722,1.226l-2.515,2.507c-.207-.111-.414-.215-.613-.318-.287-.143-.557-.279-.788-.422a27.336,27.336,0,0,1-6.551-5.969,16.127,16.127,0,0,1-2.149-3.391c.653-.6,1.258-1.218,1.847-1.815.223-.223.446-.454.669-.677a3.652,3.652,0,0,0,0-5.508l-2.173-2.173c-.247-.247-.5-.5-.74-.756-.478-.493-.979-1-1.5-1.48a3.768,3.768,0,0,0-2.666-1.17,3.9,3.9,0,0,0-2.706,1.17l-.016.016L2.1,31.322a5.823,5.823,0,0,0-1.727,3.7A13.953,13.953,0,0,0,1.4,40.929,34.27,34.27,0,0,0,7.485,51.085a37.456,37.456,0,0,0,12.472,9.766,19.433,19.433,0,0,0,7,2.069c.167.008.342.016.5.016a6,6,0,0,0,4.593-1.974c.008-.016.024-.024.032-.04a18.1,18.1,0,0,1,1.393-1.441c.342-.326.692-.669,1.035-1.027a3.971,3.971,0,0,0,1.2-2.754,3.825,3.825,0,0,0-1.226-2.73Zm2.849,8.381c-.008,0-.008.008,0,0-.31.334-.629.637-.971.971a20.93,20.93,0,0,0-1.536,1.592A3.837,3.837,0,0,1,27.471,60.8c-.119,0-.247,0-.366-.008A17.263,17.263,0,0,1,20.9,58.925a35.356,35.356,0,0,1-11.748-9.2,32.313,32.313,0,0,1-5.731-9.543A11.364,11.364,0,0,1,2.526,35.2a3.654,3.654,0,0,1,1.1-2.364L6.339,30.12a1.809,1.809,0,0,1,1.21-.565,1.7,1.7,0,0,1,1.162.557l.024.024c.486.454.947.923,1.433,1.425.247.255.5.509.756.772L13.1,34.506a1.519,1.519,0,0,1,0,2.467c-.231.231-.454.462-.685.685-.669.685-1.305,1.321-2,1.942-.016.016-.032.024-.04.04a1.623,1.623,0,0,0-.414,1.807l.024.072a17.445,17.445,0,0,0,2.571,4.195l.008.008a29.214,29.214,0,0,0,7.068,6.431,10.867,10.867,0,0,0,.979.533c.287.143.557.279.788.422.032.016.064.04.1.056a1.725,1.725,0,0,0,.788.2,1.7,1.7,0,0,0,1.21-.549l2.722-2.722a1.8,1.8,0,0,1,1.2-.6,1.621,1.621,0,0,1,1.146.581l.016.016,4.386,4.386A1.574,1.574,0,0,1,32.971,56.967Z" transform="translate(-0.344 -25.225)" fill="#fff" stroke="#fff" stroke-width="1"></path><path id="Path_62" data-name="Path 62" d="M245.828,88.057A10.243,10.243,0,0,1,254.17,96.4a1.068,1.068,0,0,0,1.059.891,1.422,1.422,0,0,0,.183-.016,1.076,1.076,0,0,0,.883-1.242A12.386,12.386,0,0,0,246.2,85.94a1.08,1.08,0,0,0-1.242.876A1.063,1.063,0,0,0,245.828,88.057Z" transform="translate(-225.475 -79.086)" fill="#fff" stroke="#fff" stroke-width="1"></path><path id="Path_63" data-name="Path 63" d="M266.643,16.636A20.4,20.4,0,0,0,250.023.017a1.073,1.073,0,1,0-.35,2.117,18.217,18.217,0,0,1,14.852,14.852,1.068,1.068,0,0,0,1.059.891,1.422,1.422,0,0,0,.183-.016A1.055,1.055,0,0,0,266.643,16.636Z" transform="translate(-229.002 0)" fill="#fff" stroke="#fff" stroke-width="1"></path></g></g></svg>