<svg xmlns="http://www.w3.org/2000/svg" id="Page-1" width="74.998" height="75" viewBox="0 0 74.998 75"><g id="_022---Weight-Warning" data-name="022---Weight-Warning"><path id="Shape" d="M7.5,57.5H29.262a1.25,1.25,0,0,0,0-2.5H7.5a5,5,0,0,1-5-5V7.5a5,5,0,0,1,5-5h40a5,5,0,0,1,5,5V39.374a1.25,1.25,0,0,0,2.5,0V7.5A7.507,7.507,0,0,0,47.5,0H7.5A7.507,7.507,0,0,0,0,7.5V50A7.507,7.507,0,0,0,7.5,57.5Z" fill="#646464"></path><path id="Shape-2" data-name="Shape" d="M57.249,32a13.8,13.8,0,0,0-10,4.256A13.8,13.8,0,0,0,37.25,32C30.941,32,26,37.287,26,44.037c0,7.587,6.536,14.992,19.988,22.639a2.625,2.625,0,0,0,2.529,0C61.963,59.029,68.5,51.624,68.5,44.037,68.5,37.287,63.558,32,57.249,32ZM47.217,64.5C34.625,57.339,28.5,50.646,28.5,44.037c0-5.437,3.761-9.537,8.75-9.537a11.261,11.261,0,0,1,8.969,4.394,1.3,1.3,0,0,0,2.065,0A11.346,11.346,0,0,1,57.249,34.5c4.989,0,8.75,4.1,8.75,9.537C66,50.646,59.874,57.339,47.217,64.5Z" transform="translate(6.499 7.999)" fill="#646464"></path><path id="Shape-3" data-name="Shape" d="M43.25,40A1.25,1.25,0,0,0,42,41.25V50a1.25,1.25,0,0,0,2.5,0V41.25A1.25,1.25,0,0,0,43.25,40Z" transform="translate(10.499 9.999)" fill="#646464"></path><path id="Shape-4" data-name="Shape" d="M43.25,51A1.25,1.25,0,0,0,42,52.25V53.5a1.25,1.25,0,0,0,2.5,0V52.25A1.25,1.25,0,0,0,43.25,51Z" transform="translate(10.499 12.748)" fill="#646464"></path><path id="Shape-5" data-name="Shape" d="M24.75,31.5A13.75,13.75,0,1,0,11,17.75,13.75,13.75,0,0,0,24.75,31.5Zm0-25A11.25,11.25,0,1,1,13.5,17.75,11.25,11.25,0,0,1,24.75,6.5Z" transform="translate(2.75 1)" fill="#646464"></path><path id="Shape-6" data-name="Shape" d="M22.75,20.25A3.741,3.741,0,0,0,24,12.98V10.25a1.25,1.25,0,0,0-2.5,0v2.73a3.741,3.741,0,0,0,1.25,7.27Zm0-5A1.25,1.25,0,1,1,21.5,16.5,1.25,1.25,0,0,1,22.75,15.25Z" transform="translate(4.75 2.25)" fill="#646464"></path><path id="Shape-7" data-name="Shape" d="M47.749,32.987A1.25,1.25,0,0,0,49,31.737V26.225A5.22,5.22,0,0,0,43.774,21a5.3,5.3,0,0,0-4.215,2.166,16.25,16.25,0,0,1-26.118,0A5.3,5.3,0,0,0,9.225,21,5.22,5.22,0,0,0,4,26.225v15.8a5.231,5.231,0,0,0,5.225,5.225H27.774a1.25,1.25,0,1,0,0-2.5H9.225A2.729,2.729,0,0,1,6.5,42.024v-15.8A2.75,2.75,0,0,1,7.289,24.3a2.781,2.781,0,0,1,4.146.355,18.749,18.749,0,0,0,30.124,0,2.79,2.79,0,0,1,4.125-.375,2.756,2.756,0,0,1,.815,1.941v5.512a1.25,1.25,0,0,0,1.25,1.25Z" transform="translate(1 5.249)" fill="#646464"></path></g></svg>